<svg width="28" height="25" viewBox="0 0 28 25" fill="none" xmlns="http://www.w3.org/2000/svg">
<path d="M3.99987 1.00021C8.66487 -1.33179 12.4999 1.50021 13.9999 3.50021C15.4999 1.50021 19.3349 -1.33179 23.9999 1.00021C29.9999 4.00021 28.4999 11.5002 23.9999 16.0002C21.8039 18.1962 17.9369 22.0632 15.1089 24.2142C14.793 24.4542 14.4054 24.5807 14.0088 24.5732C13.6121 24.5658 13.2296 24.4249 12.9229 24.1732C10.3299 22.0802 6.16487 18.1652 3.99987 16.0002C-0.500131 11.5002 -2.00013 4.00021 3.99987 1.00021Z" fill="#F8312F"/>
<path d="M13.9999 3.50052V6.55052C15.2699 3.86552 18.4249 0.280519 23.6579 0.837519C19.1479 -1.19248 15.4629 1.54952 13.9999 3.50052ZM9.94587 0.53752C8.25987 -0.0494804 6.22487 -0.112481 3.99987 1.00052C-2.00013 4.00052 -0.500131 11.5005 3.99987 16.0005C6.16487 18.1655 10.3299 22.0805 12.9229 24.1735C13.2297 24.425 13.6123 24.5658 14.0089 24.573C14.4056 24.5803 14.7931 24.4536 15.1089 24.2135C15.3629 24.0202 15.6245 23.8142 15.8939 23.5955C13.0399 21.4525 9.03387 18.0765 6.85887 16.1335C1.90187 11.7025 0.248869 4.31852 6.85887 1.36452C7.83507 0.920071 8.87822 0.640612 9.94587 0.53752Z" fill="#CA0B4A"/>
<path d="M19.0864 11.7346C20.4429 12.5177 22.6127 11.2988 23.933 9.01211C25.2532 6.72539 25.2239 4.23678 23.8674 3.45364C22.511 2.6705 20.3411 3.88939 19.0209 6.17611C17.7006 8.46283 17.73 10.9514 19.0864 11.7346Z" fill="#F37366"/>
</svg>
