<svg width="32" height="32" viewBox="0 0 32 32" fill="none" xmlns="http://www.w3.org/2000/svg">
<path d="M9.34518 0.109606C5.4599 0.402935 2.84394 1.15759 1.36396 1.72025C0.459973 2.06424 -0.0893524 2.9789 0.0119795 3.93888C1.87595 21.9386 10.8945 20.4186 10.8945 20.4186C10.8945 20.4186 20.0384 20.5626 19.153 2.49091C19.105 1.52825 18.425 0.706931 17.4784 0.501601C15.9291 0.168272 13.2305 -0.183723 9.34518 0.109606ZM5.2119 9.6428C4.33725 9.68547 3.3186 9.97346 2.81194 10.1308C2.65994 10.1788 2.50261 10.0801 2.51861 9.9468C2.84127 7.35483 4.71858 6.84551 5.98523 6.80551C6.80122 6.77884 7.62787 7.10684 7.90787 7.73883C8.44919 8.97348 6.49722 9.58147 5.2119 9.6428ZM14.3771 16.096C13.2118 15.8187 11.8785 15.7627 11.1292 15.7574C10.7212 15.7547 10.3158 15.784 9.91317 15.8454C9.14518 15.9627 7.8172 16.2134 6.80922 16.664C6.56122 16.776 6.24922 16.6507 6.28922 16.4507C6.40122 15.896 6.79855 14.9734 8.14253 14.2854C9.45718 13.6107 11.2012 13.4694 12.6145 13.9227C14.0971 14.3974 14.6384 15.2667 14.8384 15.8054C14.9078 15.9894 14.6384 16.1574 14.3771 16.096ZM17.3211 9.03481C16.7957 8.95214 15.7451 8.82148 14.8731 8.91214C13.5931 9.04281 11.5718 8.73881 11.9211 7.4375C12.0998 6.76818 12.8678 6.32285 13.6784 6.22418C14.9371 6.07485 16.8704 6.29618 17.5824 8.80815C17.6197 8.93881 17.4784 9.05881 17.3211 9.03481Z" fill="url(#paint0_radial_223_1916)"/>
<path d="M9.34518 0.109606C5.4599 0.402935 2.84394 1.15759 1.36396 1.72025C0.459973 2.06424 -0.0893524 2.9789 0.0119795 3.93888C1.87595 21.9386 10.8945 20.4186 10.8945 20.4186C10.8945 20.4186 20.0384 20.5626 19.153 2.49091C19.105 1.52825 18.425 0.706931 17.4784 0.501601C15.9291 0.168272 13.2305 -0.183723 9.34518 0.109606ZM5.2119 9.6428C4.33725 9.68547 3.3186 9.97346 2.81194 10.1308C2.65994 10.1788 2.50261 10.0801 2.51861 9.9468C2.84127 7.35483 4.71858 6.84551 5.98523 6.80551C6.80122 6.77884 7.62787 7.10684 7.90787 7.73883C8.44919 8.97348 6.49722 9.58147 5.2119 9.6428ZM14.3771 16.096C13.2118 15.8187 11.8785 15.7627 11.1292 15.7574C10.7212 15.7547 10.3158 15.784 9.91317 15.8454C9.14518 15.9627 7.8172 16.2134 6.80922 16.664C6.56122 16.776 6.24922 16.6507 6.28922 16.4507C6.40122 15.896 6.79855 14.9734 8.14253 14.2854C9.45718 13.6107 11.2012 13.4694 12.6145 13.9227C14.0971 14.3974 14.6384 15.2667 14.8384 15.8054C14.9078 15.9894 14.6384 16.1574 14.3771 16.096ZM17.3211 9.03481C16.7957 8.95214 15.7451 8.82148 14.8731 8.91214C13.5931 9.04281 11.5718 8.73881 11.9211 7.4375C12.0998 6.76818 12.8678 6.32285 13.6784 6.22418C14.9371 6.07485 16.8704 6.29618 17.5824 8.80815C17.6197 8.93881 17.4784 9.05881 17.3211 9.03481Z" fill="url(#paint1_radial_223_1916)"/>
<path d="M8.48117 7.03221C8.16117 6.18422 7.23585 5.73623 6.32386 5.75756C4.91322 5.78956 2.83058 6.43755 2.51325 9.88017C2.51059 9.90417 2.51325 9.92817 2.51859 9.95217V9.9495C2.84125 7.35754 4.71855 6.84821 5.9852 6.80822C6.80119 6.78155 7.62785 7.10954 7.90784 7.74153C8.18517 8.37353 7.80651 8.84019 7.19852 9.15485C8.14784 8.77085 8.87583 8.07753 8.48117 7.03221Z" fill="url(#paint2_radial_223_1916)"/>
<path d="M2.81193 10.1335C2.79593 10.1388 2.7826 10.1415 2.7666 10.1415C2.7906 10.1415 2.81727 10.1362 2.84393 10.1282C2.87593 10.1175 2.91593 10.1042 2.9506 10.0908C2.9026 10.1042 2.85193 10.1202 2.81193 10.1335Z" fill="url(#paint3_radial_223_1916)"/>
<path d="M17.321 9.03501C17.2784 9.02967 17.2277 9.02167 17.1797 9.01367C17.217 9.02167 17.257 9.02701 17.2917 9.03501C17.3184 9.04034 17.345 9.04034 17.369 9.03767C17.353 9.03767 17.337 9.03767 17.321 9.03501Z" fill="url(#paint4_radial_223_1916)"/>
<path d="M11.9236 7.43761C12.1023 6.76829 12.8703 6.32296 13.6809 6.2243C14.9396 6.07497 16.8729 6.29629 17.5849 8.80826V8.81093C17.5875 8.78693 17.5849 8.76293 17.5795 8.73893C16.7449 5.38431 14.5876 5.05631 13.1876 5.23764C12.2863 5.35231 11.4383 5.9363 11.249 6.82162C11.017 7.91494 11.841 8.4936 12.8383 8.72826C12.1876 8.5096 11.7423 8.10427 11.9236 7.43761Z" fill="url(#paint5_radial_223_1916)"/>
<path d="M10.8651 13.6586C11.4704 13.6586 12.0704 13.7439 12.6198 13.9199C14.1024 14.3946 14.6437 15.2639 14.8437 15.8026C14.9024 15.9626 14.7131 16.1066 14.4944 16.1066C14.4571 16.1066 14.4197 16.1012 14.3824 16.0932C13.2171 15.8159 11.8838 15.7599 11.1344 15.7546H11.0651C10.6811 15.7546 10.2971 15.7839 9.91846 15.8426C9.15047 15.9599 7.82249 16.2106 6.8145 16.6612C6.7505 16.6906 6.68117 16.7039 6.61717 16.7039C6.42784 16.7039 6.26518 16.5972 6.29718 16.4479C6.40918 15.8932 6.8065 14.9706 8.15048 14.2826C8.95047 13.8719 9.91312 13.6586 10.8651 13.6586ZM10.8651 12.856C9.77446 12.856 8.67848 13.1093 7.77982 13.5706C6.10785 14.4266 5.63585 15.6426 5.50519 16.2906C5.44652 16.5786 5.52119 16.8719 5.70785 17.1012C5.91852 17.3599 6.24918 17.5066 6.61184 17.5066C6.79317 17.5066 6.9745 17.4692 7.13717 17.3946C8.07315 16.9759 9.35313 16.7386 10.0331 16.6372C10.3771 16.5839 10.7238 16.5599 11.0598 16.5599H11.1211C11.7931 16.5652 13.0891 16.6159 14.1904 16.8772C14.2891 16.9012 14.3877 16.9119 14.4891 16.9119C14.8917 16.9119 15.2597 16.7306 15.473 16.4239C15.6597 16.1572 15.7024 15.8292 15.593 15.5279C15.361 14.8959 14.6971 13.7466 12.8624 13.1573C12.2411 12.9573 11.5691 12.856 10.8651 12.856Z" fill="url(#paint6_radial_223_1916)"/>
<path opacity="0.2" d="M12.1665 0.799988C14.5611 0.799988 16.2837 1.06398 17.3104 1.28265C17.8944 1.40798 18.3237 1.91997 18.353 2.52796C18.5957 7.47189 18.185 14.0985 14.8598 17.5917C12.9531 19.5944 10.9825 19.6157 10.9078 19.6157H10.8332L10.7665 19.6264C10.7638 19.6264 10.6225 19.6477 10.3772 19.6477C9.60917 19.6477 7.6092 19.4291 5.6359 17.4077C3.0946 14.8025 1.46796 10.2425 0.806635 3.85594C0.745302 3.25062 1.0893 2.67996 1.64662 2.4693C3.10527 1.91464 5.6359 1.19465 9.40384 0.90932C10.3505 0.837321 11.2785 0.799988 12.1665 0.799988ZM12.1665 0C11.3078 0 10.3665 0.0319995 9.34518 0.109332C5.4599 0.402661 2.84394 1.15732 1.36396 1.71997C0.459973 2.06397 -0.0893524 2.97862 0.0119795 3.93861C1.60662 19.3384 8.43852 20.4504 10.3798 20.4504C10.7078 20.4504 10.8945 20.4184 10.8945 20.4184C10.8945 20.4184 10.8972 20.4184 10.9025 20.4184C11.1825 20.4184 20.025 20.277 19.153 2.49063C19.105 1.52798 18.425 0.706656 17.4784 0.501326C16.3371 0.255996 14.5718 0 12.1665 0Z" fill="#424242"/>
<path d="M22.657 11.6616C18.7717 11.363 16.0731 11.7123 14.5237 12.0456C13.5771 12.2483 12.8971 13.0696 12.8491 14.0323C11.9424 32.104 21.089 31.968 21.089 31.968C21.089 31.968 30.1048 33.496 31.9875 15.4989C32.0888 14.5416 31.5422 13.6243 30.6382 13.2803C29.1555 12.7176 26.5422 11.9603 22.657 11.6616ZM15.0357 18.9362C14.8891 18.8802 14.8304 18.7389 14.9264 18.6695C16.817 17.3602 18.5824 18.0962 19.5823 18.7682C20.2277 19.2002 20.6543 19.8428 20.4677 20.3602C20.105 21.3655 18.2197 20.6428 17.1904 19.9735C16.4917 19.5148 15.5264 19.1228 15.0357 18.9362ZM25.8622 25.8347C25.6622 26.3734 25.1209 27.2401 23.6383 27.7147C22.225 28.168 20.481 28.0214 19.1663 27.3467C17.8224 26.6561 17.425 25.7361 17.313 25.1788C17.273 24.9788 17.585 24.8534 17.833 24.9654C18.841 25.4188 20.169 25.6694 20.937 25.7867C21.3396 25.8481 21.745 25.8774 22.153 25.8747C22.9023 25.8694 24.2356 25.8134 25.4009 25.5388C25.6596 25.4801 25.9289 25.6481 25.8622 25.8347ZM29.0702 20.0108C28.5555 20.1202 27.5422 20.3628 26.7796 20.7068C25.6596 21.2108 23.6863 21.6375 23.4809 20.5895C23.3743 20.0508 23.8969 19.4828 24.6009 19.1522C25.6942 18.6402 27.5502 18.1815 29.2169 19.7655C29.3049 19.8455 29.2249 19.9788 29.0702 20.0108Z" fill="url(#paint7_radial_223_1916)"/>
<path d="M19.6143 17.3706C18.4836 16.4959 16.4383 15.5279 14.057 18.1839C13.9344 18.3199 13.993 18.5439 14.161 18.5999C14.3504 18.6639 14.625 18.7599 14.937 18.8746C14.8677 18.8079 14.8517 18.7172 14.9237 18.6692C16.8143 17.3599 18.5796 18.0959 19.5796 18.7679C20.1556 19.1546 20.5583 19.7092 20.5023 20.1919C20.537 20.1172 20.5689 20.0372 20.5956 19.9492C20.8729 19.0372 20.345 17.9332 19.6143 17.3706Z" fill="url(#paint8_radial_223_1916)"/>
<path d="M30.1527 19.4163C28.2061 16.427 26.0381 17.075 24.7848 17.7656C23.9768 18.2109 23.2862 19.2243 23.4168 20.1629C23.4302 20.2562 23.4488 20.3389 23.4702 20.4162C23.4915 19.9309 23.9715 19.4456 24.6008 19.1523C25.6941 18.6403 27.5501 18.1816 29.2168 19.7656C29.2808 19.8269 29.2514 19.9123 29.1714 19.9683C29.4968 19.9016 29.7821 19.8483 29.9821 19.8136C30.1607 19.7843 30.2541 19.5709 30.1527 19.4163Z" fill="url(#paint9_radial_223_1916)"/>
<path d="M17.6331 24.9252C17.6997 24.9252 17.7664 24.9385 17.8331 24.9679C18.8411 25.4212 20.169 25.6719 20.937 25.7892C21.321 25.8479 21.705 25.8772 22.0917 25.8772H22.153C22.9023 25.8719 24.2357 25.8159 25.401 25.5412C25.4383 25.5332 25.4756 25.5279 25.513 25.5279C25.7316 25.5279 25.921 25.6745 25.865 25.8345C25.665 26.3732 25.1236 27.2398 23.641 27.7145C23.0943 27.8905 22.497 27.9758 21.8944 27.9758C20.9424 27.9758 19.9744 27.7625 19.1691 27.3465C17.8251 26.6559 17.4277 25.7359 17.3158 25.1785C17.2838 25.0319 17.4464 24.9252 17.6331 24.9252ZM17.6331 24.1226C17.2704 24.1226 16.9398 24.2692 16.7291 24.5279C16.5424 24.7546 16.4678 25.0505 16.5264 25.3359C16.6571 25.9839 17.1264 27.1998 18.7984 28.0585C19.697 28.5198 20.7957 28.7758 21.889 28.7758C22.5903 28.7758 23.2597 28.6745 23.881 28.4772C25.7156 27.8905 26.3823 26.7412 26.6143 26.1092C26.7263 25.8079 26.6836 25.4799 26.497 25.2132C26.2836 24.9092 25.9156 24.7252 25.513 24.7252C25.4116 24.7252 25.313 24.7359 25.217 24.7599C24.113 25.0212 22.8197 25.0692 22.1477 25.0745H22.0943C21.7557 25.0745 21.4064 25.0479 21.0597 24.9945C20.3797 24.8905 19.0997 24.6532 18.1637 24.2346C17.9957 24.1626 17.8144 24.1226 17.6331 24.1226Z" fill="url(#paint10_radial_223_1916)"/>
<path opacity="0.2" d="M19.7985 12.3493C20.6971 12.3493 21.6385 12.3866 22.5958 12.4586C26.3637 12.7466 28.8917 13.472 30.3503 14.0266C30.9077 14.2399 31.2543 14.8106 31.1903 15.4159C30.5237 21.7972 28.8944 26.3544 26.3504 28.9597C24.3771 30.981 22.3745 31.1997 21.6065 31.1997C21.3638 31.1997 21.2198 31.1784 21.2198 31.1784L21.1478 31.1677H21.0811C20.9985 31.1677 19.0305 31.1437 17.1265 29.1411C13.8012 25.6451 13.3986 19.0159 13.6466 14.0719C13.6759 13.464 14.1052 12.952 14.6919 12.8266C15.7105 12.608 17.4225 12.3493 19.7985 12.3493ZM19.7985 11.5493C17.4119 11.5493 15.6572 11.8026 14.5239 12.0453C13.5772 12.248 12.8973 13.0693 12.8493 14.0319C11.9586 31.8344 20.8198 31.9677 21.0838 31.9677H21.0891C21.0891 31.9677 21.2785 31.9997 21.6091 31.9997C23.5558 31.9997 30.377 30.8824 31.9876 15.4986C32.089 14.5413 31.5423 13.624 30.6383 13.28C29.1584 12.7173 26.5451 11.96 22.6598 11.6613C21.6198 11.5813 20.6678 11.5493 19.7985 11.5493Z" fill="#424242"/>
<defs>
<radialGradient id="paint0_radial_223_1916" cx="0" cy="0" r="1" gradientUnits="userSpaceOnUse" gradientTransform="translate(9.35433 0.245098) rotate(85.6413) scale(20.2867 12.0523)">
<stop stop-color="#29B6F6"/>
<stop offset="0.6577" stop-color="#03A9F4"/>
<stop offset="1" stop-color="#0288D1"/>
</radialGradient>
<radialGradient id="paint1_radial_223_1916" cx="0" cy="0" r="1" gradientUnits="userSpaceOnUse" gradientTransform="translate(17.6184 19.2147) scale(12.2553 12.2553)">
<stop stop-color="#2196F3"/>
<stop offset="1" stop-color="#2196F3" stop-opacity="0"/>
</radialGradient>
<radialGradient id="paint2_radial_223_1916" cx="0" cy="0" r="1" gradientUnits="userSpaceOnUse" gradientTransform="translate(4.81801 8.73352) scale(4.35602 4.3378)">
<stop stop-color="#03A9F4"/>
<stop offset="1" stop-color="#0277BD"/>
</radialGradient>
<radialGradient id="paint3_radial_223_1916" cx="0" cy="0" r="1" gradientUnits="userSpaceOnUse" gradientTransform="translate(2.86471 10.1229) rotate(-4.32341) scale(0.0985398 0.0981304)">
<stop stop-color="#03A9F4"/>
<stop offset="1" stop-color="#0277BD"/>
</radialGradient>
<radialGradient id="paint4_radial_223_1916" cx="0" cy="0" r="1" gradientUnits="userSpaceOnUse" gradientTransform="translate(17.2744 9.03797) rotate(-4.32347) scale(0.1164 0.115918)">
<stop stop-color="#03A9F4"/>
<stop offset="1" stop-color="#0277BD"/>
</radialGradient>
<radialGradient id="paint5_radial_223_1916" cx="0" cy="0" r="1" gradientUnits="userSpaceOnUse" gradientTransform="translate(13.253 8.00027) scale(4.15277 4.13541)">
<stop stop-color="#03A9F4"/>
<stop offset="1" stop-color="#0277BD"/>
</radialGradient>
<radialGradient id="paint6_radial_223_1916" cx="0" cy="0" r="1" gradientUnits="userSpaceOnUse" gradientTransform="translate(10.5696 15.1809) scale(3.95301 3.93641)">
<stop stop-color="#03A9F4"/>
<stop offset="1" stop-color="#0277BD"/>
</radialGradient>
<radialGradient id="paint7_radial_223_1916" cx="0" cy="0" r="1" gradientUnits="userSpaceOnUse" gradientTransform="translate(22.6022 11.6255) rotate(94.422) scale(20.3344 13.593)">
<stop stop-color="#F48FB1"/>
<stop offset="0.4192" stop-color="#F06292"/>
<stop offset="1" stop-color="#EC407A"/>
</radialGradient>
<radialGradient id="paint8_radial_223_1916" cx="0" cy="0" r="1" gradientUnits="userSpaceOnUse" gradientTransform="translate(18.1402 18.7332) scale(4.5033 4.48447)">
<stop stop-color="#F06292"/>
<stop offset="1" stop-color="#EC407A"/>
</radialGradient>
<radialGradient id="paint9_radial_223_1916" cx="0" cy="0" r="1" gradientUnits="userSpaceOnUse" gradientTransform="translate(26.1736 18.6669) scale(4.35361 4.3354)">
<stop stop-color="#F06292"/>
<stop offset="1" stop-color="#EC407A"/>
</radialGradient>
<radialGradient id="paint10_radial_223_1916" cx="0" cy="0" r="1" gradientUnits="userSpaceOnUse" gradientTransform="translate(21.5909 26.4507) scale(3.95328 3.93667)">
<stop stop-color="#F06292"/>
<stop offset="0.5669" stop-color="#EC407A"/>
<stop offset="1" stop-color="#EC407A"/>
</radialGradient>
</defs>
</svg>
