<svg width="28" height="28" viewBox="0 0 28 28" fill="none" xmlns="http://www.w3.org/2000/svg">
    <path
        d="M1.16241e-05 14C1.16241e-05 6.268 6.26801 0 14 0C21.732 0 28 6.268 28 14C28 21.732 21.732 28 14 28C11.632 28 9.39801 27.411 7.44001 26.371L1.91201 27.943C1.65509 28.0158 1.38339 28.0187 1.12496 27.9515C0.866537 27.8842 0.63076 27.7491 0.441984 27.5602C0.253208 27.3714 0.118277 27.1355 0.0511274 26.877C-0.016022 26.6186 -0.0129551 26.3469 0.0600115 26.09L1.63201 20.563C0.55755 18.5425 -0.00294339 16.2885 1.16241e-05 14Z"
        fill="#E0E0E0" />
</svg>