<svg width="32" height="33" viewBox="0 0 32 33" fill="none" xmlns="http://www.w3.org/2000/svg">
<path d="M12.8 18.1835C12.4836 18.1835 12.1742 18.2773 11.9111 18.4531C11.648 18.629 11.4429 18.8788 11.3218 19.1712C11.2007 19.4636 11.169 19.7853 11.2307 20.0956C11.2925 20.406 11.4449 20.6911 11.6686 20.9149C11.8924 21.1386 12.1775 21.291 12.4879 21.3528C12.7982 21.4145 13.1199 21.3828 13.4123 21.2617C13.7047 21.1406 13.9545 20.9355 14.1304 20.6724C14.3062 20.4093 14.4 20.0999 14.4 19.7835C14.4 19.3591 14.2314 18.9522 13.9314 18.6521C13.6313 18.3521 13.2243 18.1835 12.8 18.1835ZM12.8 11.7835C12.4836 11.7835 12.1742 11.8773 11.9111 12.0531C11.648 12.229 11.4429 12.4788 11.3218 12.7712C11.2007 13.0636 11.169 13.3853 11.2307 13.6956C11.2925 14.006 11.4449 14.2911 11.6686 14.5149C11.8924 14.7386 12.1775 14.891 12.4879 14.9528C12.7982 15.0145 13.1199 14.9828 13.4123 14.8617C13.7047 14.7406 13.9545 14.5355 14.1304 14.2724C14.3062 14.0093 14.4 13.6999 14.4 13.3835C14.4 12.9592 14.2314 12.5522 13.9314 12.2521C13.6313 11.9521 13.2243 11.7835 12.8 11.7835ZM19.2 11.7835C18.8836 11.7835 18.5742 11.8773 18.3111 12.0531C18.048 12.229 17.8429 12.4788 17.7218 12.7712C17.6007 13.0636 17.569 13.3853 17.6307 13.6956C17.6925 14.006 17.8449 14.2911 18.0686 14.5149C18.2924 14.7386 18.5775 14.891 18.8879 14.9528C19.1982 15.0145 19.5199 14.9828 19.8123 14.8617C20.1047 14.7406 20.3545 14.5355 20.5304 14.2724C20.7062 14.0093 20.8 13.6999 20.8 13.3835C20.8 12.9592 20.6314 12.5522 20.3314 12.2521C20.0313 11.9521 19.6243 11.7835 19.2 11.7835ZM30.4 18.1835C30.8243 18.1835 31.2313 18.0149 31.5314 17.7149C31.8314 17.4148 32 17.0078 32 16.5835C32 16.1592 31.8314 15.7522 31.5314 15.4521C31.2313 15.1521 30.8243 14.9835 30.4 14.9835H27.2V11.7835H30.4C30.8243 11.7835 31.2313 11.6149 31.5314 11.3149C31.8314 11.0148 32 10.6078 32 10.1835C32 9.75915 31.8314 9.35218 31.5314 9.05213C31.2313 8.75207 30.8243 8.5835 30.4 8.5835H26.912C26.6731 7.91246 26.2878 7.30301 25.7842 6.79934C25.2805 6.29567 24.671 5.91041 24 5.6715V2.1835C24 1.75915 23.8314 1.35218 23.5314 1.05213C23.2313 0.752067 22.8243 0.583496 22.4 0.583496C21.9757 0.583496 21.5687 0.752067 21.2686 1.05213C20.9686 1.35218 20.8 1.75915 20.8 2.1835V5.3835H17.6V2.1835C17.6 1.75915 17.4314 1.35218 17.1314 1.05213C16.8313 0.752067 16.4243 0.583496 16 0.583496C15.5757 0.583496 15.1687 0.752067 14.8686 1.05213C14.5686 1.35218 14.4 1.75915 14.4 2.1835V5.3835H11.2V2.1835C11.2 1.75915 11.0314 1.35218 10.7314 1.05213C10.4313 0.752067 10.0243 0.583496 9.6 0.583496C9.17565 0.583496 8.76869 0.752067 8.46863 1.05213C8.16857 1.35218 8 1.75915 8 2.1835V5.6715C7.32896 5.91041 6.71951 6.29567 6.21584 6.79934C5.71217 7.30301 5.32691 7.91246 5.088 8.5835H1.6C1.17565 8.5835 0.768687 8.75207 0.468629 9.05213C0.168571 9.35218 0 9.75915 0 10.1835C0 10.6078 0.168571 11.0148 0.468629 11.3149C0.768687 11.6149 1.17565 11.7835 1.6 11.7835H4.8V14.9835H1.6C1.17565 14.9835 0.768687 15.1521 0.468629 15.4521C0.168571 15.7522 0 16.1592 0 16.5835C0 17.0078 0.168571 17.4148 0.468629 17.7149C0.768687 18.0149 1.17565 18.1835 1.6 18.1835H4.8V21.3835H1.6C1.17565 21.3835 0.768687 21.5521 0.468629 21.8521C0.168571 22.1522 0 22.5592 0 22.9835C0 23.4078 0.168571 23.8148 0.468629 24.1149C0.768687 24.4149 1.17565 24.5835 1.6 24.5835H5.088C5.32691 25.2545 5.71217 25.864 6.21584 26.3677C6.71951 26.8713 7.32896 27.2566 8 27.4955V30.9835C8 31.4078 8.16857 31.8148 8.46863 32.1149C8.76869 32.4149 9.17565 32.5835 9.6 32.5835C10.0243 32.5835 10.4313 32.4149 10.7314 32.1149C11.0314 31.8148 11.2 31.4078 11.2 30.9835V27.7835H14.4V30.9835C14.4 31.4078 14.5686 31.8148 14.8686 32.1149C15.1687 32.4149 15.5757 32.5835 16 32.5835C16.4243 32.5835 16.8313 32.4149 17.1314 32.1149C17.4314 31.8148 17.6 31.4078 17.6 30.9835V27.7835H20.8V30.9835C20.8 31.4078 20.9686 31.8148 21.2686 32.1149C21.5687 32.4149 21.9757 32.5835 22.4 32.5835C22.8243 32.5835 23.2313 32.4149 23.5314 32.1149C23.8314 31.8148 24 31.4078 24 30.9835V27.4955C24.671 27.2566 25.2805 26.8713 25.7842 26.3677C26.2878 25.864 26.6731 25.2545 26.912 24.5835H30.4C30.8243 24.5835 31.2313 24.4149 31.5314 24.1149C31.8314 23.8148 32 23.4078 32 22.9835C32 22.5592 31.8314 22.1522 31.5314 21.8521C31.2313 21.5521 30.8243 21.3835 30.4 21.3835H27.2V18.1835H30.4ZM24 22.9835C24 23.4078 23.8314 23.8148 23.5314 24.1149C23.2313 24.4149 22.8243 24.5835 22.4 24.5835H9.6C9.17565 24.5835 8.76869 24.4149 8.46863 24.1149C8.16857 23.8148 8 23.4078 8 22.9835V10.1835C8 9.75915 8.16857 9.35218 8.46863 9.05213C8.76869 8.75207 9.17565 8.5835 9.6 8.5835H22.4C22.8243 8.5835 23.2313 8.75207 23.5314 9.05213C23.8314 9.35218 24 9.75915 24 10.1835V22.9835ZM19.2 18.1835C18.8836 18.1835 18.5742 18.2773 18.3111 18.4531C18.048 18.629 17.8429 18.8788 17.7218 19.1712C17.6007 19.4636 17.569 19.7853 17.6307 20.0956C17.6925 20.406 17.8449 20.6911 18.0686 20.9149C18.2924 21.1386 18.5775 21.291 18.8879 21.3528C19.1982 21.4145 19.5199 21.3828 19.8123 21.2617C20.1047 21.1406 20.3545 20.9355 20.5304 20.6724C20.7062 20.4093 20.8 20.0999 20.8 19.7835C20.8 19.3591 20.6314 18.9522 20.3314 18.6521C20.0313 18.3521 19.6243 18.1835 19.2 18.1835Z" fill="#B0B0B0"/>
</svg>
