<svg width="187" height="187" viewBox="0 0 187 187" fill="none" xmlns="http://www.w3.org/2000/svg">
<path d="M7.76322e-05 93.5C7.76322e-05 41.8613 41.8613 0 93.5 0C145.139 0 187 41.8613 187 93.5C187 145.139 145.139 187 93.5 187C77.6852 187 62.7653 183.066 49.6886 176.121L12.7695 186.619C11.0536 187.106 9.23905 187.125 7.51314 186.676C5.78723 186.226 4.21258 185.324 2.95182 184.063C1.69107 182.802 0.789919 181.226 0.341458 179.5C-0.107004 177.774 -0.0865213 175.96 0.400791 174.244L10.8995 137.331C3.72364 123.837 -0.0196576 108.784 7.76322e-05 93.5Z" fill="#E0E0E0"/>
</svg>
