<svg width="187" height="187" viewBox="0 0 187 187" fill="none" xmlns="http://www.w3.org/2000/svg">
<path d="M74.8 102.85C72.9507 102.85 71.143 103.398 69.6054 104.426C68.0678 105.453 66.8694 106.913 66.1617 108.622C65.454 110.33 65.2689 112.21 65.6297 114.024C65.9904 115.838 66.8809 117.504 68.1886 118.811C69.4962 120.119 71.1622 121.01 72.9759 121.37C74.7896 121.731 76.6696 121.546 78.3781 120.838C80.0866 120.131 81.5469 118.932 82.5742 117.395C83.6016 115.857 84.15 114.049 84.15 112.2C84.15 109.72 83.1649 107.342 81.4115 105.589C79.658 103.835 77.2798 102.85 74.8 102.85ZM74.8 65.45C72.9507 65.45 71.143 65.9984 69.6054 67.0258C68.0678 68.0532 66.8694 69.5134 66.1617 71.2219C65.454 72.9304 65.2689 74.8104 65.6297 76.6241C65.9904 78.4378 66.8809 80.1038 68.1886 81.4115C69.4962 82.7191 71.1622 83.6096 72.9759 83.9703C74.7896 84.3311 76.6696 84.146 78.3781 83.4383C80.0866 82.7306 81.5469 81.5322 82.5742 79.9946C83.6016 78.457 84.15 76.6493 84.15 74.8C84.15 72.3202 83.1649 69.942 81.4115 68.1886C79.658 66.4351 77.2798 65.45 74.8 65.45ZM112.2 65.45C110.351 65.45 108.543 65.9984 107.005 67.0258C105.468 68.0532 104.269 69.5134 103.562 71.2219C102.854 72.9304 102.669 74.8104 103.03 76.6241C103.39 78.4378 104.281 80.1038 105.589 81.4115C106.896 82.7191 108.562 83.6096 110.376 83.9703C112.19 84.3311 114.07 84.146 115.778 83.4383C117.487 82.7306 118.947 81.5322 119.974 79.9946C121.002 78.457 121.55 76.6493 121.55 74.8C121.55 72.3202 120.565 69.942 118.811 68.1886C117.058 66.4351 114.68 65.45 112.2 65.45ZM177.65 102.85C180.13 102.85 182.508 101.865 184.261 100.111C186.015 98.358 187 95.9798 187 93.5C187 91.0202 186.015 88.642 184.261 86.8886C182.508 85.1351 180.13 84.15 177.65 84.15H158.95V65.45H177.65C180.13 65.45 182.508 64.4649 184.261 62.7114C186.015 60.958 187 58.5798 187 56.1C187 53.6202 186.015 51.242 184.261 49.4886C182.508 47.7351 180.13 46.75 177.65 46.75H157.267C155.871 42.8286 153.62 39.2671 150.676 36.3238C147.733 33.3805 144.171 31.1291 140.25 29.733V9.35C140.25 6.87023 139.265 4.49202 137.511 2.73855C135.758 0.985086 133.38 0 130.9 0C128.42 0 126.042 0.985086 124.289 2.73855C122.535 4.49202 121.55 6.87023 121.55 9.35V28.05H102.85V9.35C102.85 6.87023 101.865 4.49202 100.111 2.73855C98.358 0.985086 95.9798 0 93.5 0C91.0202 0 88.642 0.985086 86.8886 2.73855C85.1351 4.49202 84.15 6.87023 84.15 9.35V28.05H65.45V9.35C65.45 6.87023 64.4649 4.49202 62.7114 2.73855C60.958 0.985086 58.5798 0 56.1 0C53.6202 0 51.242 0.985086 49.4886 2.73855C47.7351 4.49202 46.75 6.87023 46.75 9.35V29.733C42.8286 31.1291 39.2671 33.3805 36.3238 36.3238C33.3805 39.2671 31.1291 42.8286 29.733 46.75H9.35C6.87023 46.75 4.49202 47.7351 2.73855 49.4886C0.985086 51.242 0 53.6202 0 56.1C0 58.5798 0.985086 60.958 2.73855 62.7114C4.49202 64.4649 6.87023 65.45 9.35 65.45H28.05V84.15H9.35C6.87023 84.15 4.49202 85.1351 2.73855 86.8886C0.985086 88.642 0 91.0202 0 93.5C0 95.9798 0.985086 98.358 2.73855 100.111C4.49202 101.865 6.87023 102.85 9.35 102.85H28.05V121.55H9.35C6.87023 121.55 4.49202 122.535 2.73855 124.289C0.985086 126.042 0 128.42 0 130.9C0 133.38 0.985086 135.758 2.73855 137.511C4.49202 139.265 6.87023 140.25 9.35 140.25H29.733C31.1291 144.171 33.3805 147.733 36.3238 150.676C39.2671 153.62 42.8286 155.871 46.75 157.267V177.65C46.75 180.13 47.7351 182.508 49.4886 184.261C51.242 186.015 53.6202 187 56.1 187C58.5798 187 60.958 186.015 62.7114 184.261C64.4649 182.508 65.45 180.13 65.45 177.65V158.95H84.15V177.65C84.15 180.13 85.1351 182.508 86.8886 184.261C88.642 186.015 91.0202 187 93.5 187C95.9798 187 98.358 186.015 100.111 184.261C101.865 182.508 102.85 180.13 102.85 177.65V158.95H121.55V177.65C121.55 180.13 122.535 182.508 124.289 184.261C126.042 186.015 128.42 187 130.9 187C133.38 187 135.758 186.015 137.511 184.261C139.265 182.508 140.25 180.13 140.25 177.65V157.267C144.171 155.871 147.733 153.62 150.676 150.676C153.62 147.733 155.871 144.171 157.267 140.25H177.65C180.13 140.25 182.508 139.265 184.261 137.511C186.015 135.758 187 133.38 187 130.9C187 128.42 186.015 126.042 184.261 124.289C182.508 122.535 180.13 121.55 177.65 121.55H158.95V102.85H177.65ZM140.25 130.9C140.25 133.38 139.265 135.758 137.511 137.511C135.758 139.265 133.38 140.25 130.9 140.25H56.1C53.6202 140.25 51.242 139.265 49.4886 137.511C47.7351 135.758 46.75 133.38 46.75 130.9V56.1C46.75 53.6202 47.7351 51.242 49.4886 49.4886C51.242 47.7351 53.6202 46.75 56.1 46.75H130.9C133.38 46.75 135.758 47.7351 137.511 49.4886C139.265 51.242 140.25 53.6202 140.25 56.1V130.9ZM112.2 102.85C110.351 102.85 108.543 103.398 107.005 104.426C105.468 105.453 104.269 106.913 103.562 108.622C102.854 110.33 102.669 112.21 103.03 114.024C103.39 115.838 104.281 117.504 105.589 118.811C106.896 120.119 108.562 121.01 110.376 121.37C112.19 121.731 114.07 121.546 115.778 120.838C117.487 120.131 118.947 118.932 119.974 117.395C121.002 115.857 121.55 114.049 121.55 112.2C121.55 109.72 120.565 107.342 118.811 105.589C117.058 103.835 114.68 102.85 112.2 102.85Z" fill="#B0B0B0"/>
</svg>
